 
<svg xmlns="http://www.w3.org/2000/svg" width="224" height="144" viewBox="0 0 224 144" fill="#FFEBCE">
    
    <path  d="M18,113.1h1.1l2,6.3l-16.9,0v-0.6H5c0.9,0,1.5-0.3,1.8-0.8c0.2-0.3,0.3-1.1,0.3-2.3v-13.4c0-1.3-0.1-2.1-0.4-2.5c-0.4-0.4-1-0.7-1.7-0.7H4.2v-0.6h9.1v0.6h-0.8c-0.5,0-1.2,0.2-2,0.6c-0.4,0.5-0.5,1.2-0.5,2.3v13.7c0,0.9,0.1,1.4,0.3,1.8c0.1,0.2,0.3,0.4,0.5,0.5c0.2,0.1,1,0.2,2.3,0.2h1.5c1.5,0,2.6-0.1,3.3-0.3c0.6-0.2,0.9-0.7,0.9-1.3C18.8,115.8,18.5,114.7,18,113.1z M32.6,111.2l4.8-13.1h0.5l6.2,17.3c0.5,1.4,1,2.3,1.4,2.7c0.4,0.4,1,0.6,1.7,0.7v0.6h-7v-0.6c0.7,0,1.2-0.2,1.4-0.4c0.3-0.2,0.4-0.5,0.4-0.9c0-0.4-0.1-1-0.3-1.8l-0.1-0.3l-8.1-2.9l-1.2,3.2c-0.3,0.8-0.4,1.4-0.4,1.8c0,0.3,0.1,0.6,0.4,0.9c0.3,0.2,0.8,0.4,1.7,0.5v0.6h-5.6v-0.6c0.7-0.1,1.2-0.3,1.4-0.6c0.4-0.5,0.9-1.5,1.5-3l1.1-3.1l-3.9-1.4l1.8-0.4L32.6,111.2z M41.1,114.3l-4.1-11.3l-3.2,8.7L41.1,114.3z M62.1,107.9l12.2,12.3c0.7,0.8,1.6,1.2,2.8,1.2c0.8,0,1.7-0.3,2.6-1l0.1,0.2c-0.6,1.2-1.4,1.8-2.2,1.9c-0.8,0.1-1.9,0.2-3.2,0.2c-0.9,0-2-0.6-3.2-1.8l-11.1-11.4v6.4c0,1,0.1,1.7,0.2,2.1c0.1,0.3,0.3,0.5,0.6,0.7c0.4,0.3,0.9,0.4,1.4,0.4h0.7v0.6h-8.4v-0.6H55c0.8,0,1.4-0.3,1.8-0.8c0.2-0.3,0.3-1.1,0.3-2.4v-13.4c0-1-0.1-1.7-0.2-2.1c-0.1-0.3-0.3-0.5-0.6-0.6c-0.4-0.3-0.9-0.4-1.4-0.4h-0.7v-0.6h8.4v0.6h-0.7c-0.5,0-0.9,0.1-1.4,0.3c-0.3,0.2-0.5,0.4-0.6,0.7c-0.1,0.3-0.2,1-0.2,2v6.1l7.3-7.2c0.3-0.4,0.4-0.8,0.4-1.1c0-0.2-0.1-0.4-0.3-0.6c-0.2-0.2-0.5-0.3-1-0.3h-0.5v-0.6h6.4v0.6c-0.4,0-0.8,0.1-1.2,0.2c-0.4,0.1-0.7,0.5-1.1,1.2L62.1,107.9z M88.4,99.8v8.2H93c1.2,0,2-0.2,2.4-0.5c0.5-0.5,0.8-1.3,0.9-2.5h0.6v7.2h-0.6c-0.1-1-0.3-1.7-0.4-1.9c-0.2-0.4-0.5-0.6-0.9-0.8c-0.4-0.2-1.1-0.3-1.9-0.3h-4.6v6.9c0,0.9,0,1.5,0.1,1.7c0.1,0.2,0.2,0.4,0.4,0.5c0.2,0.1,0.6,0.2,1.2,0.2h3.5c1.2,0,2.1-0.1,2.6-0.3c0.5-0.2,1-0.5,1.5-1c0-0.9-0.3-1.9-0.9-3.1l1.5,0l2,5.4H82.5v-0.6h0.7c0.5,0,1-0.1,1.4-0.3c0.3-0.2,0.5-0.4,0.7-0.7c0.1-0.3,0.2-1,0.2-2v-6.7h-2.2V108h2.2v-6.8c0-0.6-0.1-1.1-0.4-1.4c-0.4-0.4-1-0.6-1.9-0.6h-0.7v-0.6h16l0.3,4.6h-0.6c-0.2-1.1-0.5-1.8-0.7-2.2c-0.3-0.4-0.6-0.7-1.1-1c-0.4-0.1-1.1-0.2-2.2-0.2H88.4z M128.9,109.7v10.8c0,1.3,0.1,2.1,0.4,2.4c0.4,0.5,1,0.7,1.8,0.7h0.8v0.6H123v-0.6h0.8c0.9,0,1.5-0.3,1.9-0.9c0.2-0.3,0.3-1.1,0.3-2.2v-18.2c0-1.3-0.1-2.1-0.4-2.5c-0.4-0.4-1-0.7-1.8-0.7H123v-0.6h7.6c1.9,0,3.3,0.2,4.4,0.6c1.1,0.4,2,1,2.7,1.9c0.7,0.9,1.1,2,1.1,3.2c0,1.7-0.6,3.1-1.7,4.1c-1.1,1.1-2.7,1.6-4.7,1.6c-0.5,0-1,0-1.6-0.1C130.2,109.9,129.6,109.8,128.9,109.7z M128.9,108.8c0.5,0.1,1,0.2,1.4,0.2c0.4,0.1,0.8,0.1,1.1,0.1c1,0,2-0.4,2.7-1.2c0.8-0.8,1.2-1.9,1.2-3.2c0-0.9-0.2-1.7-0.5-2.5c-0.4-0.8-0.9-1.4-1.6-1.7c-0.7-0.4-1.5-0.6-2.3-0.6c-0.5,0-1.2,0.1-2,0.3V108.8z M147.3,111.2l4.8-13.1h0.5l6.2,17.3c0.5,1.4,1,2.3,1.4,2.7c0.4,0.4,1,0.6,1.7,0.7v0.6h-7v-0.6c0.7,0,1.2-0.2,1.4-0.4c0.3-0.2,0.4-0.5,0.4-0.9c0-0.4-0.1-1-0.3-1.8l-0.1-0.3l-8.1-2.9l-1.2,3.2c-0.3,0.8-0.4,1.4-0.4,1.8c0,0.3,0.1,0.6,0.4,0.9c0.3,0.2,0.8,0.4,1.7,0.5v0.6h-5.6v-0.6c0.7-0.1,1.2-0.3,1.4-0.6c0.4-0.5,0.9-1.5,1.5-3l1.1-3.1l-3.9-1.4l1.8-0.4L147.3,111.2z M155.7,114.3l-4.1-11.3l-3.2,8.7L155.7,114.3z M182.9,119.4l-6.5-9.7c-0.3,0.1-0.7,0.1-1.2,0.1h-0.8v6c0,1.3,0.1,2.1,0.4,2.4c0.4,0.5,0.9,0.7,1.6,0.7h0.8v0.6H169v-0.6h0.7c0.8,0,1.4-0.3,1.7-0.8c0.2-0.3,0.3-1.1,0.3-2.3v-13.4c0-1.3-0.1-2.1-0.4-2.5c-0.4-0.4-0.9-0.7-1.6-0.7H169v-0.6h5.4v1.3c2.3-0.8,4.1-1.1,5.3-0.9c1.2,0.3,2.3,0.9,3,1.8c0.8,0.9,1.2,2,1.2,3.2c0,1.3-0.4,2.4-1.2,3.3c-0.8,0.9-2,1.6-3.5,2l6.6,10.1c1.2,1.8,2.7,2.9,4.5,3.4l0.1,0.2c-2.7,0-4.8-0.7-6.3-2.2L182.9,119.4z M174.4,108.7h0.8c1.8,0,3.2-0.4,4.1-1.2c0.9-0.8,1.4-1.8,1.4-3c0-1.2-0.3-2.2-0.9-3c-0.6-0.8-1.5-1.2-2.8-1.2c-0.8,0.1-1.7,0.4-2.7,0.8V108.7z M202.2,107.9l12.2,12.3c0.7,0.8,1.6,1.2,2.8,1.2c0.8,0,1.7-0.3,2.6-1l0.1,0.2c-0.6,1.2-1.4,1.8-2.2,1.9c-0.8,0.1-1.9,0.2-3.2,0.2c-0.9,0-2-0.6-3.2-1.8L200,109.3v6.4c0,1,0.1,1.7,0.2,2.1c0.1,0.3,0.3,0.5,0.6,0.7c0.4,0.3,0.9,0.4,1.4,0.4h0.7v0.6h-8.4v-0.6h0.7c0.8,0,1.4-0.3,1.8-0.8c0.2-0.3,0.3-1.1,0.3-2.4v-13.4c0-1-0.1-1.7-0.2-2.1c-0.1-0.3-0.3-0.5-0.6-0.6c-0.4-0.3-0.9-0.4-1.4-0.4h-0.7v-0.6h8.4v0.6h-0.7c-0.5,0-0.9,0.1-1.4,0.3c-0.3,0.2-0.5,0.4-0.6,0.7c-0.1,0.3-0.2,1-0.2,2v6.1l7.3-7.2c0.3-0.4,0.4-0.8,0.4-1.1c0-0.2-0.1-0.4-0.3-0.6c-0.2-0.2-0.5-0.3-1-0.3h-0.5v-0.6h6.4v0.6c-0.4,0-0.8,0.1-1.2,0.2c-0.4,0.1-0.7,0.5-1.1,1.2L202.2,107.9z"/>

    <path  d="M50.9,137.4h-2.2v3.5h-1.3v-9.4h5.2c0.4,0,0.8,0.1,1.1,0.2c0.4,0.2,0.7,0.4,0.9,0.6c0.3,0.3,0.5,0.6,0.6,0.9c0.1,0.4,0.2,0.7,0.2,1.1c0,0.4-0.1,0.8-0.2,1.1c-0.1,0.4-0.4,0.7-0.6,0.9c-0.3,0.3-0.6,0.5-0.9,0.6c-0.4,0.2-0.7,0.2-1.1,0.2l3.2,3.5h-1.7L50.9,137.4z M52.5,136.2c0.2,0,0.5,0,0.7-0.1c0.2-0.1,0.4-0.2,0.6-0.4s0.3-0.3,0.4-0.6c0.1-0.2,0.1-0.4,0.1-0.7c0-0.2,0-0.5-0.1-0.7c-0.1-0.2-0.2-0.4-0.4-0.6s-0.3-0.3-0.6-0.4c-0.2-0.1-0.4-0.1-0.7-0.1h-3.8v3.5H52.5z M63.5,131.5h7.3v1.2h-5.9v2.9h5.6v1.2h-5.6v2.9h5.9v1.2h-7.3V131.5z M79.4,138.6c0.6,0.5,1.2,0.9,1.8,1.1c0.6,0.2,1.2,0.3,1.8,0.3h0.1c0.4,0,0.8-0.1,1.1-0.1c0.3-0.1,0.6-0.2,0.8-0.3c0.2-0.1,0.4-0.3,0.5-0.5c0.1-0.2,0.2-0.3,0.2-0.5c0-0.3-0.1-0.5-0.2-0.7c-0.1-0.2-0.4-0.3-0.6-0.5c-0.3-0.1-0.6-0.2-0.9-0.3c-0.4-0.1-0.8-0.2-1.2-0.2c-0.4-0.1-0.9-0.2-1.4-0.3c-0.5-0.1-1-0.3-1.4-0.5c-0.4-0.2-0.8-0.5-1.1-0.8c-0.3-0.3-0.4-0.8-0.4-1.3c0-0.3,0.1-0.7,0.3-1c0.2-0.3,0.5-0.6,0.8-0.8c0.3-0.2,0.8-0.4,1.3-0.6c0.5-0.1,1.1-0.2,1.7-0.2c0.5,0,0.9,0,1.3,0.1c0.4,0.1,0.8,0.2,1.2,0.4c0.4,0.2,0.7,0.4,1,0.6c0.3,0.2,0.6,0.5,0.8,0.8l-0.8,0.7c-0.6-0.5-1.2-0.9-1.8-1.1c-0.6-0.2-1.2-0.3-1.8-0.3h-0.1c-0.4,0-0.8,0.1-1.1,0.1c-0.3,0.1-0.6,0.2-0.8,0.3c-0.2,0.1-0.4,0.3-0.5,0.5c-0.1,0.2-0.2,0.3-0.2,0.5c0,0.3,0.1,0.5,0.2,0.7c0.1,0.2,0.4,0.3,0.6,0.5c0.3,0.1,0.6,0.2,0.9,0.3c0.4,0.1,0.8,0.2,1.2,0.2c0.4,0.1,0.9,0.2,1.4,0.3c0.5,0.1,1,0.3,1.4,0.5c0.4,0.2,0.8,0.5,1.1,0.8c0.3,0.3,0.4,0.8,0.4,1.3c0,0.3-0.1,0.7-0.3,1c-0.2,0.3-0.5,0.6-0.8,0.8c-0.3,0.2-0.8,0.4-1.3,0.6c-0.5,0.1-1.1,0.2-1.7,0.2c-0.5,0-0.9,0-1.3-0.1c-0.4-0.1-0.8-0.2-1.2-0.4c-0.4-0.2-0.7-0.4-1-0.6c-0.3-0.2-0.6-0.5-0.8-0.8L79.4,138.6z M94.9,131.5h1.3v9.4h-1.3V131.5z M104.7,140.9v-9.4h3.4c0.7,0,1.3,0.1,1.9,0.3c0.6,0.2,1.1,0.6,1.6,1c0.5,0.4,0.8,0.9,1.1,1.5c0.3,0.6,0.4,1.2,0.4,1.9c0,0.7-0.1,1.3-0.4,1.9c-0.3,0.6-0.6,1.1-1.1,1.5c-0.5,0.4-1,0.7-1.6,1c-0.6,0.2-1.2,0.3-1.9,0.3H104.7z M106.1,132.7v7h2c0.5,0,1-0.1,1.4-0.3c0.4-0.2,0.8-0.4,1.2-0.7c0.3-0.3,0.6-0.7,0.8-1.1c0.2-0.4,0.3-0.9,0.3-1.4c0-0.5-0.1-1-0.3-1.4c-0.2-0.4-0.4-0.8-0.8-1.1c-0.3-0.3-0.7-0.5-1.2-0.7c-0.4-0.2-0.9-0.3-1.4-0.3H106.1z M120.9,131.5h7.3v1.2h-5.9v2.9h5.6v1.2h-5.6v2.9h5.9v1.2h-7.3V131.5z M136.2,131.5h1.3l5.9,7.5v-7.5h1.3v9.4h-1.3l-5.9-7.5v7.5h-1.3V131.5z M157.6,141.2c-0.7,0-1.3-0.1-1.9-0.4c-0.6-0.3-1.1-0.6-1.6-1.1c-0.5-0.5-0.8-1-1.1-1.6c-0.3-0.6-0.4-1.2-0.4-1.9c0-0.7,0.1-1.3,0.4-1.9c0.3-0.6,0.6-1.1,1.1-1.6c0.5-0.5,1-0.8,1.6-1.1c0.6-0.3,1.2-0.4,1.9-0.4c0.8,0,1.6,0.2,2.2,0.5c0.7,0.3,1.3,0.8,1.7,1.4l-0.9,0.7c-0.4-0.4-0.8-0.8-1.4-1c-0.5-0.3-1.1-0.4-1.7-0.4c-0.5,0-1,0.1-1.4,0.3c-0.4,0.2-0.8,0.5-1.1,0.8c-0.3,0.3-0.6,0.7-0.8,1.2c-0.2,0.5-0.3,0.9-0.3,1.5c0,0.5,0.1,1,0.3,1.5c0.2,0.5,0.4,0.9,0.8,1.2c0.3,0.3,0.7,0.6,1.1,0.8c0.4,0.2,0.9,0.3,1.4,0.3c0.6,0,1.2-0.1,1.7-0.4c0.5-0.3,1-0.6,1.4-1l0.9,0.7c-0.5,0.6-1,1.1-1.7,1.4C159.1,141,158.4,141.2,157.6,141.2z M169.4,131.5h7.3v1.2h-5.9v2.9h5.6v1.2h-5.6v2.9h5.9v1.2h-7.3V131.5z"/>

    <path  d="M112,56.9c1.2,1.2,3.4,3.1,6.3,4.9c-2.4,3.5-4.8,5.7-4.9,5.8l-1.5,1.3l-1.5-1.3c-0.1-0.1-2.5-2.3-4.9-5.8C108.6,60,110.8,58.1,112,56.9z M108.9,5.1l3.1,3.1l3.1-3.1L112,2L108.9,5.1z M122,13.8l3.1,3.1l3.1-3.1l-3.1-3.1L122,13.8z M98.9,16.9l3.1-3.1l-3.1-3.1l-3.1,3.1L98.9,16.9z M92.4,61.6c9.5,0,17.3-8.6,17.4-8.7c-0.1-0.1-7.9-8.7-17.4-8.7c-9.5,0-17.4,8.6-17.5,8.7C75,53,82.9,61.6,92.4,61.6z M131.6,44.2c-9.5,0-17.3,8.6-17.4,8.7c0.1,0.1,7.9,8.7,17.4,8.7c9.5,0,17.4-8.6,17.5-8.7C149,52.8,141.1,44.2,131.6,44.2z M112,16c-0.1,0.1-8.7,7.9-8.7,17.4c0,9.5,8.6,17.3,8.7,17.4c0.1-0.1,8.7-7.9,8.7-17.4C120.7,23.9,112.1,16.1,112,16z M131.6,39.9c1.3,0,2.6,0.2,3.9,0.4c3-6.3,2.7-13.4,2.7-13.5c-0.1,0-7.2-0.3-13.5,2.7c0.2,1.2,0.4,2.5,0.4,3.9c0,2.9-0.6,5.6-1.6,8.1C125.9,40.5,128.7,39.9,131.6,39.9z M85.9,26.8c0,0.1-0.3,7.2,2.7,13.5c1.2-0.2,2.5-0.4,3.9-0.4c2.9,0,5.6,0.6,8.1,1.6c-1-2.5-1.6-5.2-1.6-8.1c0-1.3,0.2-2.6,0.4-3.9C93.1,26.5,86,26.8,85.9,26.8z M112.6,70.8h-0.2h-0.9h-0.2c0,0,0.6,13.9-1.5,13.9c0.4,0,1.1,0,1.6,0c0,0,0.4,0,0.9,0c0.6,0,1.3,0,1.6,0C112,84.7,112.6,70.8,112.6,70.8z"/>
</svg>
