<svg width="50" height="55" viewBox="0 0 50 55" fill="#FFEBCE" xmlns="http://www.w3.org/2000/svg">
<path d="M27.0291 2.01986C26.3628 1.36153 25.6663 0.673286 24.9849 0C24.3186 0.658324 23.6372 1.33161 22.9709 1.98993C23.6523 2.66322 24.3489 3.35147 25.0151 4.00979C25.6814 3.33651 26.3628 2.66322 27.0291 2.01986ZM20.5936 26.5125C21.6233 28.5773 23.0012 30.4026 24.6214 32.0484C24.7426 32.1681 24.8637 32.2878 25 32.3925C25.0606 32.3327 25.1211 32.2878 25.1666 32.2429C25.6208 31.7492 26.1054 31.2854 26.5445 30.7767C27.6802 29.46 28.6644 28.0386 29.4216 26.4826C30.2241 24.8667 30.7541 23.176 30.8449 21.3656C30.8904 20.4978 30.8298 19.645 30.6784 18.8071C30.4058 17.3708 29.891 16.0092 29.2096 14.7076C28.4827 13.3311 27.6045 12.0743 26.5899 10.8923C26.0903 10.3237 25.5603 9.78509 25.0454 9.21654C24.9091 9.33623 24.8183 9.42601 24.7123 9.51578C24.6366 9.59059 24.5609 9.6654 24.4852 9.74021C23.0769 11.1616 21.8807 12.7476 20.9267 14.4981C20.0182 16.1738 19.3822 17.9393 19.2005 19.8395C19.1096 20.7821 19.1551 21.7097 19.3065 22.6374C19.5336 23.9989 19.9879 25.2856 20.5936 26.5125ZM33.5554 18.4032C33.7826 19.6001 33.8583 20.812 33.7371 22.0389C33.6463 23.0713 33.4343 24.0737 33.1314 25.0612C33.0103 25.4502 32.874 25.8392 32.7377 26.2282C34.0248 25.7495 35.3422 25.4053 36.705 25.2557C38.083 25.1061 39.4307 25.1809 40.7935 25.4353C42.126 22.5775 42.6408 19.5851 42.6105 16.4282C41.7171 16.4731 40.8692 16.488 40.0212 16.5778C39.2792 16.6526 38.5373 16.7723 37.8104 16.907C36.3719 17.1763 34.9939 17.6102 33.6614 18.2087C33.5706 18.2386 33.5403 18.2984 33.5554 18.4032ZM35.8116 7.81012C35.1302 7.13683 34.4488 6.46355 33.7674 5.79026C33.1012 6.44859 32.4198 7.12187 31.7535 7.7802C32.45 8.46844 33.1314 9.14173 33.7977 9.80005C34.464 9.12677 35.1454 8.45348 35.8116 7.81012ZM18.2465 7.81012C17.5651 7.13683 16.8837 6.46355 16.2174 5.80522C15.5512 6.46355 14.8698 7.13683 14.2035 7.79516C14.8849 8.46844 15.5663 9.14173 16.2326 9.80005C16.8989 9.14173 17.5803 8.46844 18.2465 7.81012ZM20.7299 39.7538C21.9412 41.5193 23.3343 43.1053 25 44.4668C26.6657 43.1053 28.0588 41.5044 29.2701 39.7538C27.7256 38.8112 26.3022 37.7339 25 36.5071C23.6978 37.7489 22.2744 38.8112 20.7299 39.7538ZM25.9388 54.5063C25.8177 54.1172 25.6814 53.7133 25.636 53.3093C25.53 52.4565 25.4543 51.6036 25.4088 50.7508C25.3634 49.7184 25.3786 48.6711 25.3634 47.6238C25.3634 47.2198 25.3786 46.8158 25.3937 46.4119C25.3937 46.1874 25.3937 45.948 25.3937 45.7236H24.6366C24.6366 46.0229 24.6366 46.3221 24.6366 46.6064C24.6366 47.4293 24.6517 48.2522 24.6517 49.0751C24.6366 49.8531 24.6214 50.6311 24.5912 51.4091C24.5609 52.2171 24.4852 53.025 24.3186 53.818C24.2429 54.1621 24.1672 54.4913 23.9552 54.7905C23.8946 54.8653 23.834 54.9402 23.7735 55H26.2871C26.272 54.985 26.272 54.9551 26.2568 54.9402C26.1357 54.7905 25.9843 54.6708 25.9388 54.5063ZM49.5609 33.41C48.0618 31.9736 46.3961 30.7617 44.5488 29.7892C42.8225 28.8765 41.0055 28.2481 39.0369 28.0985C37.9164 28.0087 36.811 28.0985 35.7208 28.3379C34.3277 28.6371 33.0254 29.1608 31.7686 29.8341C30.2393 30.657 28.8462 31.6594 27.5439 32.8115C27.1654 33.1406 26.8171 33.4997 26.4385 33.8588C26.7111 34.1132 26.9534 34.3526 27.1956 34.5919C28.513 35.8188 29.9515 36.8811 31.5264 37.7489C33.2677 38.7065 35.1151 39.3947 37.129 39.5892C38.1284 39.679 39.1127 39.6491 40.0969 39.4695C41.5051 39.2301 42.8377 38.7514 44.1248 38.123C46.0479 37.1804 47.7589 35.9535 49.3186 34.5022C49.5457 34.2927 49.7729 34.0683 50 33.8588V33.8289C49.8637 33.6942 49.7123 33.5596 49.5609 33.41ZM23.5463 33.8588C23.4858 33.784 23.4252 33.7242 23.3798 33.6793C22.8649 33.2155 22.3652 32.7217 21.8353 32.2729C20.5027 31.1507 19.0491 30.1931 17.4743 29.445C15.9752 28.7269 14.4004 28.2481 12.7196 28.1134C11.6445 28.0237 10.5694 28.0985 9.52453 28.3079C8.0103 28.6221 6.60206 29.1757 5.25439 29.9089C3.77044 30.7168 2.40763 31.6893 1.13568 32.7965C0.757117 33.1406 0.378558 33.4997 0 33.8588C0.287704 34.1281 0.545124 34.3825 0.802544 34.6219C2.48334 36.148 4.31557 37.4347 6.39007 38.3773C7.94973 39.0955 9.5851 39.5593 11.3113 39.6341C12.341 39.679 13.3555 39.5743 14.3701 39.3498C16.0206 38.9758 17.55 38.3025 19.0036 37.4347C20.427 36.5968 21.7141 35.5944 22.9104 34.4723C23.1224 34.2777 23.3343 34.0683 23.5463 33.8588ZM9.22169 25.4203C10.5845 25.1659 11.9322 25.0911 13.3101 25.2407C14.6729 25.3904 15.9752 25.7345 17.2623 26.2133C17.2623 26.1684 17.2623 26.1534 17.2471 26.1235C16.6869 24.6423 16.3234 23.1311 16.2326 21.5601C16.172 20.4978 16.2477 19.4655 16.4446 18.4331C16.4749 18.2984 16.4446 18.2386 16.3083 18.1787C15.0212 17.5952 13.6887 17.1763 12.2956 16.907C11.5536 16.7723 10.8116 16.6676 10.0697 16.5778C9.61539 16.518 9.14597 16.488 8.67656 16.4731C8.25258 16.4581 7.81345 16.4731 7.37432 16.4731C7.32889 18.3433 7.54089 20.1687 7.96487 21.9641C8.28286 23.161 8.67656 24.3131 9.22169 25.4203Z" />
</svg>
