 
<svg xmlns="http://www.w3.org/2000/svg" x="0px" y="0px" width="51" height="55" viewBox="0 0 51 55"  >
 
<path   d="M27.9,54.1h-4.7l0.8-0.8c0,0,0.1-0.1,0.1-0.2c0.1-0.2,0.2-0.4,0.3-0.7c0.1-0.6,0.2-1.4,0.2-2.2
	c0-0.7,0-1.5,0.1-2.2c0-0.4,0-0.8,0-1.2c0-0.4,0-0.8,0-1.2v-1.3h1.7v1.1c0,0.4,0,0.8,0,1.2c0,0.3,0,0.7,0,1c0,0.7,0,1.3,0,2
	c0,0.8,0.1,1.6,0.2,2.4c0,0.3,0.1,0.6,0.2,0.9l0,0.1c0,0,0.1,0.1,0.1,0.1c0,0,0.1,0.1,0.1,0.1l0.1,0.1L27.9,54.1z M25.2,53.1h0.7
	c-0.1-0.3-0.2-0.7-0.3-1.1c0-0.3-0.1-0.6-0.1-0.9c0,0.5-0.1,1-0.2,1.5C25.3,52.8,25.2,53,25.2,53.1z M25.5,44.2L25.2,44
	c-1.5-1.3-2.9-2.8-4.1-4.6L20.8,39l0.4-0.3c1.5-0.9,2.8-1.9,4-3l0.3-0.3l0.3,0.3c1.2,1.1,2.5,2.1,4,3l0.4,0.3l-0.3,0.4
	c-1.3,1.8-2.6,3.3-4.1,4.6L25.5,44.2z M22.1,39.3c1,1.4,2.1,2.7,3.4,3.7c1.2-1,2.3-2.3,3.4-3.7c-1.2-0.8-2.3-1.6-3.4-2.6
	C24.5,37.6,23.4,38.5,22.1,39.3z M12.9,39.5c-0.2,0-0.3,0-0.5,0c-1.6-0.1-3.2-0.5-4.9-1.2c-1.9-0.9-3.7-2.1-5.4-3.6
	c-0.1-0.1-0.3-0.3-0.4-0.4l-0.7-0.7l0.4-0.3c0.4-0.4,0.7-0.7,1.1-1c1.3-1.1,2.6-2,4-2.8c1.4-0.8,2.8-1.3,4.2-1.6
	c1.1-0.2,2.1-0.3,3.2-0.2c1.6,0.1,3.1,0.6,4.7,1.3c1.5,0.7,2.9,1.6,4.2,2.8c0.3,0.3,0.6,0.6,0.9,0.8c0.2,0.2,0.4,0.3,0.5,0.5
	c0.1,0.1,0.1,0.1,0.2,0.2l0.3,0.3l-0.3,0.3c-0.2,0.2-0.4,0.4-0.6,0.6c-1.2,1.2-2.5,2.1-3.8,2.9c-1.5,0.9-3,1.5-4.5,1.9
	C14.6,39.4,13.8,39.5,12.9,39.5z M2.4,33.5l0.4,0.4c1.7,1.5,3.4,2.7,5.2,3.5c1.5,0.7,3,1.1,4.5,1.2c0.9,0,1.8,0,2.8-0.3
	c1.4-0.3,2.8-0.9,4.3-1.8c1.3-0.7,2.4-1.6,3.6-2.8c0.1-0.1,0.2-0.2,0.3-0.2c-0.1-0.1-0.2-0.2-0.4-0.3c-0.3-0.3-0.6-0.6-0.9-0.8
	c-1.3-1.1-2.6-1.9-4-2.6c-1.5-0.7-2.9-1.1-4.4-1.2c-0.9-0.1-1.9,0-2.9,0.2C9.6,29,8.3,29.5,7,30.2c-1.3,0.7-2.6,1.6-3.8,2.7
	C2.9,33.1,2.7,33.3,2.4,33.5z M38,39.5c-0.3,0-0.7,0-1.1,0c-1.8-0.2-3.6-0.8-5.5-1.8c-1.5-0.8-2.9-1.9-4.2-3.1
	c-0.2-0.2-0.5-0.5-0.7-0.7l-0.4-0.3l0.7-0.7c0.2-0.2,0.5-0.5,0.7-0.7c1.3-1.2,2.7-2.1,4.1-2.9c1.3-0.7,2.6-1.2,3.9-1.5
	c1.1-0.2,2.2-0.3,3.3-0.2c1.8,0.1,3.6,0.7,5.4,1.7c1.8,0.9,3.4,2.1,4.9,3.5l0.6,0.5v0.4l-0.8,0.8c-1.6,1.5-3.2,2.6-5,3.5
	c-1.4,0.7-2.7,1.1-4,1.3C39.3,39.4,38.7,39.5,38,39.5z M27.5,33.5c0.1,0.1,0.2,0.2,0.4,0.4c1.2,1.2,2.6,2.1,4,2.9
	c1.8,1,3.5,1.5,5.1,1.7c0.9,0.1,1.8,0.1,2.7-0.1c1.2-0.2,2.4-0.6,3.7-1.2c1.7-0.8,3.3-1.9,4.8-3.4l0.3-0.3l-0.1-0.1
	c-1.4-1.3-3-2.5-4.7-3.4c-1.7-0.9-3.4-1.4-5.1-1.6c-1-0.1-2,0-3,0.2c-1.2,0.3-2.4,0.7-3.6,1.4c-1.4,0.7-2.7,1.6-3.9,2.8
	C28,33.1,27.8,33.3,27.5,33.5L27.5,33.5z M25.6,32.7l-0.4-0.2c-0.1-0.1-0.3-0.2-0.4-0.4c-1.7-1.7-3-3.5-3.9-5.4l0,0
	c-0.6-1.3-1.1-2.5-1.3-3.8c-0.2-1-0.2-1.9-0.1-2.8c0.2-1.7,0.7-3.5,1.7-5.3c0.9-1.7,2.1-3.2,3.5-4.6l0.9-0.8l0.3,0.3
	c0.2,0.2,0.4,0.5,0.6,0.7c0.3,0.3,0.6,0.6,0.8,0.9c1,1.2,1.9,2.4,2.6,3.7c0.7,1.4,1.2,2.7,1.4,4c0.2,0.9,0.2,1.7,0.2,2.5
	c-0.1,1.7-0.5,3.3-1.4,5c-0.7,1.4-1.6,2.8-2.8,4.2c-0.3,0.3-0.5,0.6-0.8,0.9c-0.2,0.2-0.3,0.4-0.5,0.5L25.6,32.7z M21.7,26.3
	c0.9,1.8,2.1,3.5,3.7,5.1c0,0,0,0,0,0c0.1-0.1,0.2-0.3,0.4-0.4c0.3-0.3,0.5-0.5,0.8-0.8c1.1-1.3,2-2.6,2.7-4
	c0.8-1.6,1.2-3.1,1.3-4.7c0-0.8,0-1.5-0.2-2.3c-0.2-1.2-0.7-2.5-1.3-3.8c-0.7-1.2-1.4-2.4-2.4-3.5c-0.3-0.3-0.5-0.6-0.8-0.9
	c-0.1-0.1-0.2-0.2-0.3-0.3L25.3,11c-1.3,1.3-2.4,2.8-3.3,4.4c-0.9,1.7-1.4,3.3-1.6,4.9c-0.1,0.8,0,1.7,0.1,2.5
	C20.8,24,21.1,25.1,21.7,26.3L21.7,26.3z M32.1,27.1l0.3-1c0.1-0.4,0.3-0.7,0.4-1.1c0.3-1,0.5-1.9,0.6-2.8c0.1-1.1,0-2.2-0.2-3.3
	l0,0c0-0.3,0.1-0.6,0.4-0.7c1.3-0.6,2.6-1,4-1.3c0.8-0.2,1.5-0.3,2.1-0.3c0.6-0.1,1.2-0.1,1.8-0.1l1.2-0.1l0,0.5
	c0,3.3-0.5,6.1-1.8,8.8l-0.2,0.3L40.4,26c-1.3-0.2-2.5-0.3-3.7-0.2c-1.2,0.1-2.4,0.4-3.7,0.9L32.1,27.1z M34.1,19
	c0.2,1.1,0.2,2.3,0.1,3.3c-0.1,1-0.3,1.9-0.6,3c0,0.1,0,0.1-0.1,0.2c1-0.3,2-0.5,3-0.6c1.2-0.1,2.4-0.1,3.7,0.1
	c1-2.3,1.5-4.7,1.5-7.5l-0.2,0c-0.6,0-1.2,0-1.7,0.1c-0.6,0.1-1.3,0.2-2.1,0.3C36.5,18.1,35.3,18.5,34.1,19z M33.9,19.1
	C33.9,19.1,33.9,19.1,33.9,19.1C33.9,19.1,33.9,19.1,33.9,19.1z M18.6,27L18,26.7c-1.3-0.5-2.5-0.8-3.6-0.9
	c-1.2-0.1-2.4-0.1-3.7,0.2l-0.4,0.1l-0.2-0.3c-0.5-1-0.9-2.1-1.2-3.4c-0.4-1.8-0.6-3.6-0.6-5.3l0-0.5l0.9,0c0.3,0,0.6,0,0.8,0
	c0.5,0,1,0,1.4,0.1c0.8,0.1,1.5,0.2,2.1,0.3c1.4,0.3,2.7,0.7,3.9,1.2c0.3,0.1,0.5,0.4,0.4,0.8c-0.2,1-0.2,1.9-0.2,2.8
	c0.1,1.4,0.4,2.7,0.9,4.2l0,0.3V27z M13,24.8c0.5,0,0.9,0,1.4,0.1c1,0.1,1.9,0.3,3,0.6c-0.4-1.3-0.6-2.4-0.7-3.6
	c-0.1-1,0-1.9,0.2-2.9c-1.1-0.5-2.3-0.9-3.5-1.1c-0.7-0.1-1.4-0.2-2.1-0.3c-0.4-0.1-0.8-0.1-1.3-0.1c-0.2,0-0.5,0-0.8,0
	c0,1.5,0.2,3.1,0.6,4.6c0.3,1.1,0.6,2,1,2.9C11.6,24.9,12.3,24.8,13,24.8z M33.9,11.4l-2.6-2.6l2.6-2.6l2.6,2.6l-0.3,0.3
	c-0.6,0.6-1.3,1.2-1.9,1.9L33.9,11.4z M32.6,8.8l1.3,1.2c0.4-0.4,0.8-0.8,1.2-1.2l-1.3-1.2L32.6,8.8z M17.2,11.3l-2.6-2.6l2.6-2.6
	l2.6,2.6L17.2,11.3z M15.9,8.8l1.3,1.2l1.2-1.2l-1.3-1.2L15.9,8.8z M25.5,5.9l-2.6-2.6l2.6-2.6l2.6,2.6l-0.3,0.3
	c-0.6,0.6-1.3,1.2-1.9,1.9L25.5,5.9z M24.2,3.3l1.3,1.2c0.4-0.4,0.8-0.8,1.2-1.2L25.5,2L24.2,3.3z"/>
</svg>
