<svg width="51" height="55" viewBox="0 0 51 55" stroke="#FFEBCE" stroke-opacity="0.2" xmlns="http://www.w3.org/2000/svg">
<path d="M25.6366 46.2236V46.2242V46.2259V46.2276V46.2294V46.2311V46.2328V46.2345V46.2363V46.238V46.2397V46.2414V46.2432V46.2449V46.2466V46.2483V46.2501V46.2518V46.2535V46.2552V46.2569V46.2587V46.2604V46.2621V46.2638V46.2655V46.2673V46.269V46.2707V46.2724V46.2742V46.2759V46.2776V46.2793V46.281V46.2827V46.2845V46.2862V46.2879V46.2896V46.2913V46.2931V46.2948V46.2965V46.2982V46.2999V46.3016V46.3034V46.3051V46.3068V46.3085V46.3102V46.3119V46.3137V46.3154V46.3171V46.3188V46.3205V46.3222V46.3239V46.3257V46.3274V46.3291V46.3308V46.3325V46.3342V46.3359V46.3376V46.3394V46.3411V46.3428V46.3445V46.3462V46.3479V46.3496V46.3513V46.353V46.3547V46.3565V46.3582V46.3599V46.3616V46.3633V46.365V46.3667V46.3684V46.3701V46.3718V46.3735V46.3752V46.3769V46.3787V46.3804V46.3821V46.3838V46.3855V46.3872V46.3889V46.3906V46.3923V46.394V46.3957V46.3974V46.3991V46.4008V46.4022L25.8937 46.4119M25.6366 46.2236L25.5908 51.4286C25.5994 51.2078 25.6068 50.9871 25.6133 50.7666C25.6133 50.7656 25.6133 50.7647 25.6133 50.7638C25.6299 50.2031 25.6408 49.6435 25.6516 49.0868L25.6516 49.0848H25.6517V49.0751C25.6517 48.6614 25.6479 48.248 25.6441 47.8374L25.6441 47.8361C25.6435 47.7663 25.6429 47.6966 25.6422 47.627C25.6422 47.6259 25.6422 47.6248 25.6422 47.6238C25.6392 47.2835 25.6366 46.9448 25.6366 46.6064V46.6047V46.603V46.6014V46.5997V46.598V46.5964V46.5947V46.593V46.5914V46.5897V46.588V46.5864V46.5847V46.583V46.5813V46.5797V46.578V46.5763V46.5747V46.573V46.5713V46.5696V46.568V46.5663V46.5646V46.5629V46.5613V46.5596V46.5579V46.5562V46.5546V46.5529V46.5512V46.5495V46.5479V46.5462V46.5445V46.5428V46.5411V46.5395V46.5378V46.5361V46.5344V46.5328V46.5311V46.5294V46.5277V46.526V46.5243V46.5227V46.521V46.5193V46.5176V46.5159V46.5143V46.5126V46.5109V46.5092V46.5075V46.5058V46.5041V46.5025V46.5008V46.4991V46.4974V46.4957V46.494V46.4923V46.4907V46.489V46.4873V46.4856V46.4839V46.4822V46.4805V46.4788V46.4771V46.4755V46.4738V46.4721V46.4704V46.4687V46.467V46.4653V46.4636V46.4619V46.4602V46.4585V46.4568V46.4551V46.4535V46.4518V46.4501V46.4484V46.4467V46.445V46.4433V46.4416V46.4399V46.4382V46.4365V46.4348V46.4331V46.4314V46.4297V46.428V46.4263V46.4246V46.4229V46.4212V46.4195V46.4178V46.4161V46.4144V46.4127V46.4119H25.8937M25.6366 46.2236H25.8937M25.6366 46.2236H25.8937M25.8937 46.4119V46.2236M25.8937 46.4119C25.8786 46.8158 25.8634 47.2198 25.8634 47.6238C25.8685 47.9726 25.8701 48.3215 25.8718 48.6697C25.8752 49.3671 25.8785 50.0623 25.9088 50.7508L25.8937 46.2236M1.30254 34.6219C2.98334 36.148 4.81557 37.4347 6.89007 38.3773C8.44973 39.0955 10.0851 39.5593 11.8113 39.6341C12.841 39.679 13.8555 39.5743 14.8701 39.3498M1.30254 34.6219L1.64304 34.2557C1.64231 34.255 1.64157 34.2544 1.64084 34.2537M1.30254 34.6219L1.63865 34.2517C1.63938 34.2523 1.64011 34.253 1.64084 34.2537M1.30254 34.6219C1.17004 34.4986 1.03754 34.3715 0.900904 34.2403C0.888257 34.2282 0.875573 34.216 0.862852 34.2038L19.5036 37.4347C18.05 38.3025 16.5206 38.9758 14.8701 39.3498M1.64084 34.2537C3.29049 35.7512 5.07933 37.0054 7.0969 37.9221L7.0992 37.9231C8.61234 38.6199 10.184 39.0631 11.833 39.1346L11.8331 39.1346C12.8134 39.1773 13.7835 39.078 14.7604 38.862M1.64084 34.2537C1.51619 34.1377 1.39096 34.0176 1.25887 33.8908L1.24678 33.8792C1.23998 33.8727 1.23315 33.8662 1.22631 33.8596C1.4746 33.6252 1.72147 33.3943 1.96802 33.1701C3.21456 32.0855 4.54641 31.1359 5.99333 30.3481C7.30434 29.6349 8.66599 29.1007 10.1245 28.7979C11.1266 28.5971 12.1539 28.5262 13.178 28.6117L13.1796 28.6118C14.7895 28.7408 16.3047 29.1996 17.7582 29.896L17.7597 29.8967C19.2927 30.6249 20.7106 31.5583 22.0132 32.6553C22.3369 32.9295 22.6375 33.2102 22.947 33.4992C23.0735 33.6173 23.2015 33.7368 23.3332 33.8578C23.2456 33.9422 23.1589 34.0244 23.0723 34.1038L23.0723 34.1038L23.0683 34.1076C21.8942 35.2089 20.6364 36.1877 19.25 37.0038L19.2473 37.0054C17.8287 37.8523 16.3486 38.502 14.7604 38.862M14.7604 38.862C14.7602 38.8621 14.7599 38.8621 14.7596 38.8622L14.8701 39.3498M14.7604 38.862C14.761 38.8619 14.7615 38.8618 14.7621 38.8616L14.8701 39.3498M29.4737 26.2602L29.472 26.2638C28.7371 27.7741 27.7789 29.1597 26.666 30.4499C26.4069 30.7501 26.1491 31.016 25.8806 31.293C25.7516 31.426 25.6201 31.5616 25.4849 31.7047C25.4817 31.7015 25.4785 31.6984 25.4753 31.6952C23.8867 30.0811 22.5433 28.2989 21.5415 26.2903C20.9536 25.0994 20.5175 23.86 20.2998 22.556C20.1546 21.6658 20.112 20.7819 20.1982 19.8875L20.1982 19.8871C20.372 18.0697 20.9811 16.3691 21.8661 14.7367C22.796 13.0304 23.9628 11.4829 25.3386 10.0939C25.3392 10.0933 25.3398 10.0927 25.3404 10.0921L25.5136 9.921C25.6286 10.0447 25.7419 10.1654 25.8541 10.285C26.1437 10.5936 26.4261 10.8945 26.7125 11.2202C27.7044 12.3762 28.56 13.6014 29.267 14.9402C29.9294 16.2058 30.4249 17.5198 30.6867 18.8982C30.8314 19.6996 30.8889 20.5131 30.8456 21.3395L30.8456 21.3406C30.7589 23.067 30.2534 24.6904 29.4737 26.2602ZM42.6105 16.9516C42.5826 19.7285 42.1077 22.3594 40.998 24.8762C39.7232 24.6691 38.4516 24.6174 37.1511 24.7586L37.1505 24.7587C36.0855 24.8756 35.0509 25.1069 34.0407 25.4241C34.0638 25.3528 34.0866 25.2813 34.1088 25.2099L34.1095 25.2078C34.4207 24.1929 34.6404 23.1568 34.7349 22.0856C34.8523 20.8943 34.7914 19.7201 34.5928 18.5649C35.8188 18.0339 37.0839 17.6453 38.4015 17.3986C39.1213 17.2652 39.8484 17.1482 40.5714 17.0753L40.5738 17.075C41.1737 17.0115 41.7669 16.9868 42.3953 16.9606C42.4666 16.9576 42.5383 16.9546 42.6105 16.9516ZM25.6394 53.3681C25.6847 53.7671 25.8067 54.1629 25.9128 54.5H25.1552C25.2246 54.2999 25.2671 54.1067 25.3046 53.9362L25.3069 53.9254L25.3079 53.9208C25.4148 53.4121 25.4853 52.9003 25.531 52.3899C25.5628 52.716 25.5989 53.0421 25.6394 53.3681ZM25.4096 50.7774C25.421 50.9925 25.4344 51.2075 25.4496 51.4226L25.0912 51.4091C25.1214 50.6311 25.1366 49.8531 25.1517 49.0751C25.1517 48.6636 25.1479 48.2522 25.1442 47.8407C25.1404 47.4293 25.1366 47.0178 25.1366 46.6064V46.2236H25.3937V46.2237V46.225V46.2264V46.2277V46.2291V46.2304V46.2318V46.2331V46.2345V46.2358V46.2372V46.2385V46.2399V46.2412V46.2425V46.2439V46.2452V46.2466V46.2479V46.2493V46.2506V46.252V46.2533V46.2547V46.256V46.2574V46.2587V46.2601V46.2614V46.2627V46.2641V46.2654V46.2668V46.2681V46.2695V46.2708V46.2722V46.2735V46.2748V46.2762V46.2775V46.2789V46.2802V46.2816V46.2829V46.2842V46.2856V46.2869V46.2883V46.2896V46.2909V46.2923V46.2936V46.295V46.2963V46.2976V46.299V46.3003V46.3017V46.303V46.3043V46.3057V46.307V46.3084V46.3097V46.311V46.3124V46.3137V46.315V46.3164V46.3177V46.319V46.3204V46.3217V46.3231V46.3244V46.3257V46.3271V46.3284V46.3297V46.3311V46.3324V46.3337V46.3351V46.3364V46.3377V46.3391V46.3404V46.3417V46.343V46.3444V46.3457V46.347V46.3484V46.3497V46.351V46.3524V46.3537V46.355V46.3563V46.3577V46.359V46.3603V46.3617V46.363V46.3643V46.3656V46.367V46.3683V46.3696V46.3709V46.3723V46.3736V46.3749V46.3762V46.3776V46.3789V46.3802V46.3815V46.3829V46.3842V46.3855V46.3868V46.3881V46.3895V46.3908V46.3921V46.3934V46.3947V46.3961V46.3974V46.3987V46.4V46.4013V46.4025C25.3912 46.4702 25.3886 46.5381 25.3861 46.6064C25.374 46.9409 25.3634 47.2818 25.3634 47.6238L25.3635 47.631C25.3684 47.9694 25.37 48.3129 25.3717 48.6587C25.3724 48.7972 25.3731 48.936 25.374 49.0751C25.374 49.0765 25.374 49.078 25.374 49.0794C25.3776 49.6451 25.3847 50.2137 25.4093 50.7728L25.4096 50.7774ZM44.8151 30.2312L44.8158 30.2316C46.6195 31.1811 48.2464 32.3644 49.7121 33.7683C49.7378 33.7937 49.7635 33.8186 49.7888 33.8429C49.6836 33.9434 49.5814 34.0408 49.4796 34.1346L49.478 34.1361C47.9496 35.5584 46.2786 36.7554 44.4054 37.6736C43.1503 38.2864 41.8637 38.747 40.5131 38.9766L40.5131 38.9766L40.5072 38.9776C39.5728 39.1481 38.6347 39.1774 37.6757 39.0914C35.7474 38.9049 33.9663 38.245 32.2673 37.3108C30.7334 36.4655 29.3298 35.4299 28.0417 34.231C27.9174 34.1081 27.7915 33.9838 27.6607 33.8566C27.6638 33.8536 27.667 33.8505 27.6701 33.8474C27.9074 33.6161 28.1293 33.3998 28.372 33.1888L28.3752 33.186C29.6523 32.0562 31.0138 31.0771 32.5048 30.2748C33.7299 29.6185 34.988 29.1141 36.3258 28.8267L36.328 28.8262C37.3741 28.5965 38.4299 28.5114 39.497 28.5969L39.4991 28.597C41.3829 28.7402 43.1333 29.342 44.8151 30.2312ZM13.8647 24.7437L13.8641 24.7437C12.5611 24.6022 11.2871 24.6543 10.0097 24.8624C9.56529 23.8975 9.22912 22.8924 8.94989 21.8424C8.57267 20.2429 8.36813 18.6226 8.36828 16.9692C8.6398 16.9661 8.89809 16.9636 9.15893 16.9728L9.16063 16.9728C9.62028 16.9875 10.072 17.0166 10.5043 17.0735L10.5043 17.0735L10.5096 17.0742C11.2443 17.1631 11.975 17.2663 12.7035 17.3984C13.9909 17.6475 15.2234 18.0275 16.4148 18.5506C16.2396 19.5511 16.1745 20.5559 16.2334 21.5886L16.2334 21.589C16.3094 22.903 16.569 24.1723 16.9679 25.4111C15.9605 25.093 14.9323 24.8609 13.8647 24.7437ZM16.458 18.3166C16.4581 18.3166 16.4579 18.3184 16.457 18.3223C16.4575 18.3186 16.4579 18.3167 16.458 18.3166ZM16.6185 18.6421C16.6183 18.6421 16.616 18.641 16.6118 18.6386C16.6166 18.6408 16.6187 18.642 16.6185 18.6421ZM24.1823 1.98993L25.4849 0.702907L26.8143 2.01652C26.3814 2.43812 25.9446 2.86981 25.5119 3.30366L24.1823 1.98993ZM32.9649 7.7802L34.2674 6.49317L35.5969 7.80678C35.164 8.22838 34.7272 8.66008 34.2944 9.09392L32.9649 7.7802ZM16.0619 7.15586L16.7174 6.50813L18.0351 7.81012L17.3881 8.44942L16.7326 9.09715L15.4149 7.79516L16.0619 7.15586ZM29.0564 39.898C28.0187 41.3386 26.8512 42.661 25.4999 43.8153C24.147 42.6612 22.9793 41.3479 21.9423 39.8992C23.2087 39.0947 24.3957 38.2028 25.5018 37.1898C26.6049 38.1914 27.79 39.0914 29.0564 39.898Z" />
</svg>
