<svg width="18" height="18" fill="#FFEED7"  viewBox="0 0 18 18" xmlns="http://www.w3.org/2000/svg">
  <path  d="M13 0C15.669 0 18.226 2.258 17.475 5.206C16.7174 8.16308 15.1788 10.8622 13.0204 13.0208C10.862 15.1794 8.16302 16.7181 5.206 17.476C2.258 18.225 0 15.668 0 13V12C0 10.873 0.901 10.055 1.9 9.956C2.71888 9.87446 3.5227 9.68099 4.289 9.381C4.47002 9.30991 4.66783 9.29314 4.85823 9.33274C5.04863 9.37235 5.22335 9.46662 5.361 9.604L6.364 10.606C8.14181 9.60981 9.60981 8.14181 10.606 6.364L9.604 5.36C9.46662 5.22235 9.37235 5.04763 9.33274 4.85723C9.29314 4.66683 9.30991 4.46902 9.381 4.288C9.68107 3.52138 9.87455 2.71722 9.956 1.898C10.055 0.902 10.873 0 12 0H13Z"  />
</svg>