<svg width="20" height="28" viewBox="0 0 20 28" fill="#FDFDFE" fill-opacity="0.4" xmlns="http://www.w3.org/2000/svg">
  <path d="M12 0.5H8C6.01159 0.502316 4.10528 1.29324 2.69926 2.69926C1.29324 4.10528 0.502316 6.01159 0.5 8V20C0.502316 21.9884 1.29324 23.8947 2.69926 25.3007C4.10528 26.7068 6.01159 27.4977 8 27.5H12C13.9884 27.4977 15.8947 26.7068 17.3007 25.3007C18.7068 23.8947 19.4977 21.9884 19.5 20V8C19.4977 6.01159 18.7068 4.10528 17.3007 2.69926C15.8947 1.29324 13.9884 0.502316 12 0.5ZM18.5 20C18.498 21.7233 17.8126 23.3754 16.594 24.594C15.3754 25.8126 13.7233 26.498 12 26.5H8C6.2767 26.498 4.62455 25.8126 3.406 24.594C2.18744 23.3754 1.50198 21.7233 1.5 20V8C1.50198 6.2767 2.18744 4.62455 3.406 3.406C4.62455 2.18744 6.2767 1.50198 8 1.5H12C13.7233 1.50198 15.3754 2.18744 16.594 3.406C17.8126 4.62455 18.498 6.2767 18.5 8V20ZM10.5 7.2075V20.7925L12.6462 18.6462C12.7401 18.5524 12.8673 18.4997 13 18.4997C13.1327 18.4997 13.2599 18.5524 13.3538 18.6462C13.4476 18.7401 13.5003 18.8673 13.5003 19C13.5003 19.1327 13.4476 19.2599 13.3538 19.3538L10.3538 22.3538C10.3073 22.4002 10.2522 22.4371 10.1915 22.4623C10.1308 22.4874 10.0657 22.5004 10 22.5004C9.93429 22.5004 9.86923 22.4874 9.80853 22.4623C9.74783 22.4371 9.69269 22.4002 9.64625 22.3538L6.64625 19.3538C6.55243 19.2599 6.49972 19.1327 6.49972 19C6.49972 18.8673 6.55243 18.7401 6.64625 18.6462C6.74007 18.5524 6.86732 18.4997 7 18.4997C7.13268 18.4997 7.25993 18.5524 7.35375 18.6462L9.5 20.7925V7.2075L7.35375 9.35375C7.25993 9.44757 7.13268 9.50028 7 9.50028C6.86732 9.50028 6.74007 9.44757 6.64625 9.35375C6.55243 9.25993 6.49972 9.13268 6.49972 9C6.49972 8.86732 6.55243 8.74007 6.64625 8.64625L9.64625 5.64625C9.69269 5.59976 9.74783 5.56288 9.80853 5.53772C9.86923 5.51256 9.93429 5.49961 10 5.49961C10.0657 5.49961 10.1308 5.51256 10.1915 5.53772C10.2522 5.56288 10.3073 5.59976 10.3538 5.64625L13.3538 8.64625C13.4476 8.74007 13.5003 8.86732 13.5003 9C13.5003 9.13268 13.4476 9.25993 13.3538 9.35375C13.2599 9.44757 13.1327 9.50028 13 9.50028C12.8673 9.50028 12.7401 9.44757 12.6462 9.35375L10.5 7.2075Z" />
</svg>