<svg width="32" height="32" viewBox="0 0 32 32"  xmlns="http://www.w3.org/2000/svg" fill="#FDFDFE" fill-opacity="0.4">
<path d="M18 2.5H14C12.0116 2.50232 10.1053 3.29324 8.69926 4.69926C7.29324 6.10528 6.50232 8.01159 6.5 10V22C6.50232 23.9884 7.29324 25.8947 8.69926 27.3007C10.1053 28.7068 12.0116 29.4977 14 29.5H18C19.9884 29.4977 21.8947 28.7068 23.3007 27.3007C24.7068 25.8947 25.4977 23.9884 25.5 22V10C25.4977 8.01159 24.7068 6.10528 23.3007 4.69926C21.8947 3.29324 19.9884 2.50232 18 2.5ZM24.5 22C24.498 23.7233 23.8126 25.3754 22.594 26.594C21.3754 27.8126 19.7233 28.498 18 28.5H14C12.2767 28.498 10.6246 27.8126 9.406 26.594C8.18744 25.3754 7.50198 23.7233 7.5 22V10C7.50198 8.2767 8.18744 6.62455 9.406 5.406C10.6246 4.18744 12.2767 3.50198 14 3.5H18C19.7233 3.50198 21.3754 4.18744 22.594 5.406C23.8126 6.62455 24.498 8.2767 24.5 10V22ZM16.5 9.2075V22.7925L18.6462 20.6462C18.7401 20.5524 18.8673 20.4997 19 20.4997C19.1327 20.4997 19.2599 20.5524 19.3538 20.6462C19.4476 20.7401 19.5003 20.8673 19.5003 21C19.5003 21.1327 19.4476 21.2599 19.3538 21.3538L16.3538 24.3538C16.3073 24.4002 16.2522 24.4371 16.1915 24.4623C16.1308 24.4874 16.0657 24.5004 16 24.5004C15.9343 24.5004 15.8692 24.4874 15.8085 24.4623C15.7478 24.4371 15.6927 24.4002 15.6462 24.3538L12.6462 21.3538C12.5524 21.2599 12.4997 21.1327 12.4997 21C12.4997 20.8673 12.5524 20.7401 12.6462 20.6462C12.7401 20.5524 12.8673 20.4997 13 20.4997C13.1327 20.4997 13.2599 20.5524 13.3538 20.6462L15.5 22.7925V9.2075L13.3538 11.3538C13.2599 11.4476 13.1327 11.5003 13 11.5003C12.8673 11.5003 12.7401 11.4476 12.6462 11.3538C12.5524 11.2599 12.4997 11.1327 12.4997 11C12.4997 10.8673 12.5524 10.7401 12.6462 10.6462L15.6462 7.64625C15.6927 7.59976 15.7478 7.56288 15.8085 7.53772C15.8692 7.51256 15.9343 7.49961 16 7.49961C16.0657 7.49961 16.1308 7.51256 16.1915 7.53772C16.2522 7.56288 16.3073 7.59976 16.3538 7.64625L19.3538 10.6462C19.4476 10.7401 19.5003 10.8673 19.5003 11C19.5003 11.1327 19.4476 11.2599 19.3538 11.3538C19.2599 11.4476 19.1327 11.5003 19 11.5003C18.8673 11.5003 18.7401 11.4476 18.6462 11.3538L16.5 9.2075Z" />
</svg>
